<mxfile host="app.diagrams.net" modified="2020-11-06T09:41:01.353Z" agent="5.0 (Macintosh; Intel Mac OS X 10_15_7) AppleWebKit/605.1.15 (KHTML, like Gecko) Version/14.0 Safari/605.1.15" etag="Wpu_CkREpNW1uuSGRFrW" version="13.8.8" type="github">
  <diagram id="Kct_C77k4w69qnWXF-Gp" name="Page-1">
    <mxGraphModel dx="3766" dy="1265" grid="1" gridSize="10" guides="1" tooltips="1" connect="1" arrows="1" fold="1" page="1" pageScale="1" pageWidth="1700" pageHeight="1100" math="0" shadow="0">
      <root>
        <mxCell id="0" />
        <mxCell id="1" parent="0" />
        <mxCell id="mxm4oyXmpaIIjX80Ufu0-10" value="" style="rounded=0;whiteSpace=wrap;html=1;fillColor=#f5f5f5;strokeColor=#666666;fontColor=#333333;" vertex="1" parent="1">
          <mxGeometry y="60" width="1230" height="890" as="geometry" />
        </mxCell>
        <mxCell id="mxm4oyXmpaIIjX80Ufu0-1" value="Internet" style="text;html=1;align=center;verticalAlign=middle;resizable=0;points=[];autosize=1;fontStyle=1;fillColor=#ffffff;" vertex="1" parent="1">
          <mxGeometry y="60" width="60" height="20" as="geometry" />
        </mxCell>
        <mxCell id="mxm4oyXmpaIIjX80Ufu0-27" style="edgeStyle=orthogonalEdgeStyle;rounded=1;orthogonalLoop=1;jettySize=auto;html=1;entryX=0;entryY=0.5;entryDx=0;entryDy=0;" edge="1" parent="1" source="mxm4oyXmpaIIjX80Ufu0-4" target="mxm4oyXmpaIIjX80Ufu0-9">
          <mxGeometry relative="1" as="geometry" />
        </mxCell>
        <mxCell id="mxm4oyXmpaIIjX80Ufu0-4" value="" style="outlineConnect=0;dashed=0;verticalLabelPosition=bottom;verticalAlign=top;align=center;html=1;shape=mxgraph.aws3.mobile_client;fillColor=#D2D3D3;gradientColor=none;" vertex="1" parent="1">
          <mxGeometry x="30" y="186" width="40.5" height="63" as="geometry" />
        </mxCell>
        <mxCell id="mxm4oyXmpaIIjX80Ufu0-28" style="edgeStyle=orthogonalEdgeStyle;rounded=1;orthogonalLoop=1;jettySize=auto;html=1;entryX=0;entryY=0.5;entryDx=0;entryDy=0;" edge="1" parent="1" source="mxm4oyXmpaIIjX80Ufu0-9" target="mxm4oyXmpaIIjX80Ufu0-11">
          <mxGeometry relative="1" as="geometry" />
        </mxCell>
        <mxCell id="mxm4oyXmpaIIjX80Ufu0-9" value="&lt;font style=&quot;font-size: 15px&quot;&gt;VPN&lt;/font&gt;" style="rounded=0;whiteSpace=wrap;html=1;fontStyle=1;fillColor=#d5e8d4;strokeColor=#82b366;" vertex="1" parent="1">
          <mxGeometry x="130" y="196.5" width="80" height="42" as="geometry" />
        </mxCell>
        <mxCell id="mxm4oyXmpaIIjX80Ufu0-26" style="edgeStyle=orthogonalEdgeStyle;rounded=1;orthogonalLoop=1;jettySize=auto;html=1;entryX=-0.005;entryY=0.463;entryDx=0;entryDy=0;entryPerimeter=0;" edge="1" parent="1" source="mxm4oyXmpaIIjX80Ufu0-18" target="mxm4oyXmpaIIjX80Ufu0-20">
          <mxGeometry relative="1" as="geometry" />
        </mxCell>
        <mxCell id="mxm4oyXmpaIIjX80Ufu0-18" value="" style="pointerEvents=1;shadow=0;dashed=0;html=1;strokeColor=none;fillColor=#505050;labelPosition=center;verticalLabelPosition=bottom;verticalAlign=top;outlineConnect=0;align=center;shape=mxgraph.office.devices.workstation;" vertex="1" parent="1">
          <mxGeometry x="30" y="560" width="80" height="90" as="geometry" />
        </mxCell>
        <mxCell id="mxm4oyXmpaIIjX80Ufu0-19" value="Public Internet Access" style="text;html=1;align=center;verticalAlign=middle;resizable=0;points=[];autosize=1;fontStyle=1;" vertex="1" parent="1">
          <mxGeometry x="170" y="580" width="140" height="20" as="geometry" />
        </mxCell>
        <mxCell id="mxm4oyXmpaIIjX80Ufu0-25" value="" style="group" vertex="1" connectable="0" parent="1">
          <mxGeometry x="390" y="510" width="390" height="215" as="geometry" />
        </mxCell>
        <mxCell id="mxm4oyXmpaIIjX80Ufu0-20" value="" style="whiteSpace=wrap;html=1;strokeColor=#9673a6;strokeWidth=2;fillColor=#e1d5e7;" vertex="1" parent="mxm4oyXmpaIIjX80Ufu0-25">
          <mxGeometry width="390" height="205" as="geometry" />
        </mxCell>
        <mxCell id="mxm4oyXmpaIIjX80Ufu0-21" value="Heroku" style="text;html=1;align=center;verticalAlign=middle;resizable=0;points=[];autosize=1;fontStyle=1;fillColor=#ffffff;" vertex="1" parent="mxm4oyXmpaIIjX80Ufu0-25">
          <mxGeometry width="60" height="20" as="geometry" />
        </mxCell>
        <mxCell id="mxm4oyXmpaIIjX80Ufu0-24" value="" style="group" vertex="1" connectable="0" parent="mxm4oyXmpaIIjX80Ufu0-25">
          <mxGeometry x="90" y="45" width="270" height="170" as="geometry" />
        </mxCell>
        <mxCell id="mxm4oyXmpaIIjX80Ufu0-22" value="&lt;div style=&quot;text-align: justify&quot;&gt;&lt;span style=&quot;font-size: 15px&quot;&gt;&lt;b&gt;- Video Conferencing app&lt;/b&gt;&lt;/span&gt;&lt;/div&gt;&lt;div style=&quot;text-align: justify&quot;&gt;&lt;b&gt;&lt;span style=&quot;font-size: 15px&quot;&gt;-&amp;nbsp;Signalling&amp;nbsp;Server&lt;/span&gt;&lt;/b&gt;&lt;/div&gt;&lt;div style=&quot;text-align: justify&quot;&gt;&lt;span style=&quot;font-size: 15px&quot;&gt;&lt;b&gt;- Turn Server&lt;/b&gt;&lt;/span&gt;&lt;/div&gt;" style="whiteSpace=wrap;html=1;fillColor=#d5e8d4;strokeColor=#82b366;" vertex="1" parent="mxm4oyXmpaIIjX80Ufu0-24">
          <mxGeometry width="270" height="130" as="geometry" />
        </mxCell>
        <mxCell id="mxm4oyXmpaIIjX80Ufu0-23" value="Rooms App Services" style="text;html=1;align=center;verticalAlign=middle;resizable=0;points=[];autosize=1;fontStyle=1" vertex="1" parent="mxm4oyXmpaIIjX80Ufu0-24">
          <mxGeometry width="140" height="20" as="geometry" />
        </mxCell>
        <mxCell id="mxm4oyXmpaIIjX80Ufu0-29" value="&lt;div style=&quot;text-align: justify&quot;&gt;&lt;b&gt;&lt;font style=&quot;font-size: 15px&quot;&gt;DNS = Cloudfare&lt;/font&gt;&lt;/b&gt;&lt;/div&gt;&lt;div style=&quot;text-align: justify&quot;&gt;&lt;b&gt;&lt;font&gt;&lt;span style=&quot;font-size: 15px&quot;&gt;- www.projectguardian.eu&lt;/span&gt;&lt;/font&gt;&lt;/b&gt;&lt;/div&gt;&lt;div style=&quot;text-align: justify&quot;&gt;&lt;b&gt;&lt;font&gt;&lt;span style=&quot;font-size: 15px&quot;&gt;&lt;br&gt;&lt;/span&gt;&lt;/font&gt;&lt;/b&gt;&lt;/div&gt;&lt;div style=&quot;text-align: justify&quot;&gt;&lt;b&gt;&lt;font&gt;&lt;span style=&quot;font-size: 15px&quot;&gt;DO App Services DNS&lt;/span&gt;&lt;/font&gt;&lt;/b&gt;&lt;/div&gt;&lt;div style=&quot;text-align: justify&quot;&gt;&lt;b&gt;&lt;font&gt;&lt;span style=&quot;font-size: 15px&quot;&gt;- dashboard.projectguardian.eu&lt;/span&gt;&lt;/font&gt;&lt;/b&gt;&lt;/div&gt;&lt;div style=&quot;text-align: justify&quot;&gt;&lt;b&gt;&lt;font&gt;&lt;span style=&quot;font-size: 15px&quot;&gt;- queue.projectguardian.eu&lt;/span&gt;&lt;/font&gt;&lt;/b&gt;&lt;/div&gt;&lt;div style=&quot;text-align: justify&quot;&gt;&lt;b&gt;&lt;font&gt;&lt;span style=&quot;font-size: 15px&quot;&gt;- turn.projectguardian.eu&lt;/span&gt;&lt;/font&gt;&lt;/b&gt;&lt;/div&gt;&lt;div style=&quot;text-align: justify&quot;&gt;&lt;span style=&quot;font-size: 15px&quot;&gt;&lt;b&gt;- fw.projectguardian.eu&lt;/b&gt;&lt;/span&gt;&lt;/div&gt;&lt;div style=&quot;text-align: justify&quot;&gt;&lt;span style=&quot;font-size: 15px&quot;&gt;&lt;b&gt;- dns.projectguardian.eu&lt;/b&gt;&lt;/span&gt;&lt;/div&gt;&lt;div style=&quot;text-align: justify&quot;&gt;&lt;span style=&quot;font-size: 15px&quot;&gt;&lt;b&gt;- siem.projectguardian.eu&lt;/b&gt;&lt;/span&gt;&lt;/div&gt;&lt;div style=&quot;text-align: justify&quot;&gt;&lt;b&gt;&lt;font&gt;&lt;span style=&quot;font-size: 15px&quot;&gt;&lt;br&gt;&lt;/span&gt;&lt;/font&gt;&lt;/b&gt;&lt;/div&gt;&lt;div style=&quot;text-align: justify&quot;&gt;&lt;b&gt;&lt;font&gt;&lt;span style=&quot;font-size: 15px&quot;&gt;Heroku App services DNS&lt;/span&gt;&lt;/font&gt;&lt;/b&gt;&lt;/div&gt;&lt;div style=&quot;text-align: justify&quot;&gt;&lt;b&gt;&lt;font&gt;&lt;span style=&quot;font-size: 15px&quot;&gt;- rooms.projectguardian.eu&lt;/span&gt;&lt;/font&gt;&lt;/b&gt;&lt;/div&gt;" style="whiteSpace=wrap;html=1;fillColor=#f8cecc;strokeColor=#b85450;" vertex="1" parent="1">
          <mxGeometry x="940" y="60" width="290" height="280" as="geometry" />
        </mxCell>
        <mxCell id="mxm4oyXmpaIIjX80Ufu0-33" value="" style="group" vertex="1" connectable="0" parent="1">
          <mxGeometry y="800" width="625" height="300" as="geometry" />
        </mxCell>
        <mxCell id="mxm4oyXmpaIIjX80Ufu0-32" value="" style="whiteSpace=wrap;html=1;strokeColor=#6c8ebf;strokeWidth=2;fillColor=#dae8fc;" vertex="1" parent="mxm4oyXmpaIIjX80Ufu0-33">
          <mxGeometry width="460" height="150" as="geometry" />
        </mxCell>
        <mxCell id="mxm4oyXmpaIIjX80Ufu0-3" value="Dsirf On-Premise" style="text;html=1;align=center;verticalAlign=middle;resizable=0;points=[];autosize=1;fontStyle=1;fillColor=#ffffff;" vertex="1" parent="mxm4oyXmpaIIjX80Ufu0-33">
          <mxGeometry width="110" height="20" as="geometry" />
        </mxCell>
        <mxCell id="mxm4oyXmpaIIjX80Ufu0-34" value="&lt;div style=&quot;text-align: justify&quot;&gt;&lt;b&gt;&lt;font style=&quot;font-size: 15px&quot;&gt;Github Enterprise&lt;/font&gt;&lt;/b&gt;&lt;/div&gt;" style="whiteSpace=wrap;html=1;fillColor=#d5e8d4;strokeColor=#82b366;" vertex="1" parent="mxm4oyXmpaIIjX80Ufu0-33">
          <mxGeometry x="10" y="40" width="150" height="80" as="geometry" />
        </mxCell>
        <mxCell id="mxm4oyXmpaIIjX80Ufu0-35" value="&lt;div style=&quot;text-align: justify&quot;&gt;&lt;b&gt;&lt;font style=&quot;font-size: 15px&quot;&gt;Docker Registry&lt;/font&gt;&lt;/b&gt;&lt;/div&gt;&lt;div style=&quot;text-align: justify&quot;&gt;&lt;b&gt;&lt;font style=&quot;font-size: 15px&quot;&gt;S3 Scality&lt;/font&gt;&lt;/b&gt;&lt;/div&gt;" style="whiteSpace=wrap;html=1;fillColor=#d5e8d4;strokeColor=#82b366;" vertex="1" parent="mxm4oyXmpaIIjX80Ufu0-33">
          <mxGeometry x="200" y="40" width="230" height="80" as="geometry" />
        </mxCell>
        <mxCell id="mxm4oyXmpaIIjX80Ufu0-11" value="" style="whiteSpace=wrap;html=1;strokeColor=#6c8ebf;strokeWidth=2;fillColor=#dae8fc;" vertex="1" parent="1">
          <mxGeometry x="280" y="85" width="430" height="265" as="geometry" />
        </mxCell>
        <mxCell id="mxm4oyXmpaIIjX80Ufu0-13" value="&lt;div style=&quot;text-align: justify&quot;&gt;&lt;b&gt;&lt;font style=&quot;font-size: 15px&quot;&gt;FW, &amp;nbsp;DNS, SIEM&lt;/font&gt;&lt;/b&gt;&lt;/div&gt;" style="whiteSpace=wrap;html=1;fillColor=#d5e8d4;strokeColor=#82b366;" vertex="1" parent="1">
          <mxGeometry x="285" y="190" width="130" height="80" as="geometry" />
        </mxCell>
        <mxCell id="mxm4oyXmpaIIjX80Ufu0-6" value="DigitalOcean" style="text;html=1;align=center;verticalAlign=middle;resizable=0;points=[];autosize=1;fontStyle=1;fillColor=#ffffff;" vertex="1" parent="1">
          <mxGeometry x="280" y="85" width="90" height="20" as="geometry" />
        </mxCell>
        <mxCell id="mxm4oyXmpaIIjX80Ufu0-7" value="Security Services" style="text;html=1;align=center;verticalAlign=middle;resizable=0;points=[];autosize=1;fontStyle=1" vertex="1" parent="1">
          <mxGeometry x="285" y="190" width="120" height="20" as="geometry" />
        </mxCell>
        <mxCell id="mxm4oyXmpaIIjX80Ufu0-36" value="" style="group" vertex="1" connectable="0" parent="1">
          <mxGeometry x="510" y="165" width="180" height="170" as="geometry" />
        </mxCell>
        <mxCell id="mxm4oyXmpaIIjX80Ufu0-14" value="&lt;div style=&quot;text-align: justify&quot;&gt;&lt;span style=&quot;font-size: 15px&quot;&gt;&lt;b&gt;- Dashboard&lt;/b&gt;&lt;/span&gt;&lt;/div&gt;&lt;div style=&quot;text-align: justify&quot;&gt;&lt;span style=&quot;font-size: 15px&quot;&gt;&lt;b&gt;- Turn Server (iOS)&lt;/b&gt;&lt;/span&gt;&lt;/div&gt;&lt;div style=&quot;text-align: justify&quot;&gt;&lt;span style=&quot;font-size: 15px&quot;&gt;&lt;b&gt;- RabbitMQ&lt;/b&gt;&lt;/span&gt;&lt;/div&gt;" style="whiteSpace=wrap;html=1;fillColor=#d5e8d4;strokeColor=#82b366;" vertex="1" parent="mxm4oyXmpaIIjX80Ufu0-36">
          <mxGeometry width="180" height="170" as="geometry" />
        </mxCell>
        <mxCell id="mxm4oyXmpaIIjX80Ufu0-15" value="App Services" style="text;html=1;align=center;verticalAlign=middle;resizable=0;points=[];autosize=1;fontStyle=1" vertex="1" parent="mxm4oyXmpaIIjX80Ufu0-36">
          <mxGeometry width="90" height="20" as="geometry" />
        </mxCell>
        <mxCell id="mxm4oyXmpaIIjX80Ufu0-16" value="&lt;div style=&quot;text-align: justify&quot;&gt;&lt;b&gt;&lt;font style=&quot;font-size: 15px&quot;&gt;DO Spaces (CDN)&lt;/font&gt;&lt;/b&gt;&lt;/div&gt;" style="whiteSpace=wrap;html=1;fillColor=#d5e8d4;strokeColor=#82b366;" vertex="1" parent="mxm4oyXmpaIIjX80Ufu0-36">
          <mxGeometry y="130" width="180" height="40" as="geometry" />
        </mxCell>
        <mxCell id="mxm4oyXmpaIIjX80Ufu0-38" value="&lt;b&gt;&lt;font style=&quot;font-size: 15px&quot;&gt;Project Guardian&lt;/font&gt;&lt;/b&gt;" style="text;html=1;align=center;verticalAlign=middle;resizable=0;points=[];autosize=1;" vertex="1" parent="1">
          <mxGeometry x="475" y="40" width="140" height="20" as="geometry" />
        </mxCell>
      </root>
    </mxGraphModel>
  </diagram>
</mxfile>
